<svg data-v-423bf9ae="" xmlns="http://www.w3.org/2000/svg" viewBox="0 0 314.28149011563636 60" class="font"><!----><!----><!----><g data-v-423bf9ae="" id="e924306c-83f2-41ba-b50a-4d276f1d4ffd" fill="white" transform="matrix(4.83605233626814,0,0,4.83605233626814,4.065305410182617,-2.2831260065599324)"><path d="M2.14 11.33L2.14 11.33Q1.10 11.36 0.66 11.16L0.66 11.16L0.66 11.16Q1.51 6.57 2.63 2.08L2.63 2.08L2.63 2.08Q2.69 1.83 2.04 1.95L2.04 1.95L2.04 1.95Q1.74 2.00 1.49 2.12L1.49 2.12L1.49 2.12Q1.21 2.25 1.19 2.34L1.19 2.34L1.19 2.34Q0.07 6.83-0.79 11.47L-0.79 11.47L-0.79 11.47Q-0.88 11.56-0.81 11.61L-0.81 11.61L-0.81 11.61Q-0.81 11.63-0.82 11.70L-0.82 11.70L-0.82 11.70Q-0.83 11.74-0.83 11.78L-0.83 11.78L-0.83 11.78Q-0.85 11.94-0.21 11.83L-0.21 11.83L-0.21 11.83Q0.28 11.95 1.19 11.92L1.19 11.92L1.19 11.92Q1.80 11.91 2.22 11.65L2.22 11.65L2.22 11.65Q2.40 11.54 2.38 11.44L2.38 11.44L2.38 11.44Q2.35 11.33 2.14 11.33L2.14 11.33ZM4.48 9.01L4.48 9.01Q4.02 9.63 3.90 9.78L3.90 9.78L3.90 9.78Q3.86 9.69 3.82 9.60L3.82 9.60L3.82 9.60Q3.60 8.99 3.75 7.95L3.75 7.95L3.75 7.95Q3.87 7.14 4.27 6.16L4.27 6.16L4.27 6.16Q4.42 5.80 4.62 5.44L4.62 5.44L4.62 5.44Q4.75 5.22 4.92 5.04L4.92 5.04L4.92 5.04Q5.09 4.88 5.33 4.70L5.33 4.70L5.33 4.70Q5.33 4.69 5.34 4.68L5.34 4.68L5.34 4.68Q5.35 4.68 5.38 4.66L5.38 4.66L5.38 4.66Q5.42 4.63 5.50 4.58L5.50 4.58L5.50 4.58Q5.50 4.58 5.50 4.57L5.50 4.57L5.50 4.57Q5.71 4.74 5.67 5.37L5.67 5.37L5.67 5.37Q5.67 5.48 6.09 5.44L6.09 5.44L6.09 5.44Q5.98 5.98 5.76 6.88L5.76 6.88L5.76 6.88Q5.39 7.77 4.48 9.01L4.48 9.01ZM7.59 4.85L7.59 4.85Q7.59 4.72 7.14 4.77L7.14 4.77L7.14 4.77Q7.12 4.17 6.75 4.01L6.75 4.01L6.75 4.01Q6.17 3.75 5.13 4.17L5.13 4.17L5.13 4.17Q3.71 4.74 3.12 5.81L3.12 5.81L3.12 5.81Q2.18 7.56 2.24 9.26L2.24 9.26L2.24 9.26Q2.27 10.25 2.75 10.56L2.75 10.56L2.75 10.56Q2.98 10.71 3.58 10.63L3.58 10.63L3.58 10.63Q4.14 10.55 4.61 10.22L4.61 10.22L4.61 10.22Q4.88 10.04 5.15 9.75L5.15 9.75L5.15 9.75Q5.07 10.31 5.04 10.81L5.04 10.81L5.04 10.81Q5.03 10.88 5.26 10.90L5.26 10.90L5.26 10.90Q5.47 10.90 5.75 10.85L5.75 10.85L5.75 10.85Q6.47 10.71 6.49 10.42L6.49 10.42L6.49 10.42Q6.58 9.17 7.19 6.64L7.19 6.64L7.19 6.64Q7.56 5.73 7.59 4.85L7.59 4.85ZM12.49 4.50L12.49 4.50Q12.42 4.33 11.89 4.44L11.89 4.44L11.89 4.44Q10.69 4.66 9.87 5.45L9.87 5.45L9.87 5.45Q9.69 5.63 9.52 5.84L9.52 5.84L9.52 5.84Q9.75 4.81 9.86 4.05L9.86 4.05L9.86 4.05Q9.88 3.92 9.50 3.96L9.50 3.96L9.50 3.96Q9.24 3.98 9.07 4.03L9.07 4.03L9.07 4.03Q8.44 4.20 8.40 4.44L8.40 4.44L8.40 4.44Q8.27 5.31 7.71 7.64L7.71 7.64L7.71 7.64Q7.23 9.64 7.14 10.86L7.14 10.86L7.14 10.86Q7.12 11.04 7.81 10.89L7.81 10.89L7.81 10.89Q8.51 10.75 8.59 10.53L8.59 10.53L8.59 10.53Q9.45 8.17 9.92 7.23L9.92 7.23L9.92 7.23Q10.41 6.24 10.90 5.65L10.90 5.65L10.90 5.65Q11.02 5.50 11.17 5.36L11.17 5.36L11.17 5.36Q11.38 6.30 10.99 8.51L10.99 8.51L10.99 8.51Q10.43 11.60 10.12 12.71L10.12 12.71L10.12 12.71Q10.06 12.96 10.71 12.84L10.71 12.84L10.71 12.84Q11.01 12.78 11.27 12.67L11.27 12.67L11.27 12.67Q11.55 12.54 11.57 12.45L11.57 12.45L11.57 12.45Q11.87 11.34 12.44 8.18L12.44 8.18L12.44 8.18Q12.65 7.02 12.69 6.25L12.69 6.25L12.69 6.25Q12.76 5.17 12.49 4.50L12.49 4.50ZM14.09 9.28L14.09 9.28Q13.84 8.31 14.21 6.81L14.21 6.81L14.21 6.81Q14.57 5.33 15.26 4.59L15.26 4.59L15.26 4.59Q15.31 4.53 15.39 4.46L15.39 4.46L15.39 4.46Q15.40 4.47 15.42 4.49L15.42 4.49L15.42 4.49Q15.77 4.80 15.86 5.69L15.86 5.69L15.86 5.69Q15.87 5.79 16.11 5.80L16.11 5.80L16.11 5.80Q15.96 6.60 15.71 7.98L15.71 7.98L15.71 7.98Q15.43 9.58 15.32 10.17L15.32 10.17L15.32 10.17Q15.10 10.26 14.99 10.40L14.99 10.40L14.99 10.40Q14.99 10.40 14.96 10.44L14.96 10.44L14.96 10.44Q14.88 10.40 14.79 10.34L14.79 10.34L14.79 10.34Q14.29 10.02 14.09 9.28L14.09 9.28ZM18.10 0.60L18.10 0.60Q17.79 0.66 17.54 0.77L17.54 0.77L17.54 0.77Q17.27 0.90 17.25 1.00L17.25 1.00L17.25 1.00Q16.86 2.28 16.52 3.83L16.52 3.83L16.52 3.83Q16.26 3.74 15.91 3.77L15.91 3.77L15.91 3.77Q15.20 3.85 14.55 4.22L14.55 4.22L14.55 4.22Q13.43 4.86 12.86 6.75L12.86 6.75L12.86 6.75Q12.33 8.51 12.65 9.71L12.65 9.71L12.65 9.71Q12.87 10.55 13.57 10.92L13.57 10.92L13.57 10.92Q14.37 11.33 15.52 10.84L15.52 10.84L15.52 10.84Q15.63 10.83 15.80 10.81L15.80 10.81L15.80 10.81Q16.11 10.75 16.36 10.64L16.36 10.64L16.36 10.64Q16.64 10.50 16.66 10.41L16.66 10.41L16.66 10.41Q18.18 2.39 18.68 0.74L18.68 0.74L18.68 0.74Q18.76 0.49 18.10 0.60L18.10 0.60ZM19.46 0.91L19.46 0.91Q18.74 2.82 18.18 5.84L18.18 5.84L18.18 5.84Q17.27 10.69 17.23 10.86L17.23 10.86L17.23 10.86Q17.18 11.10 17.82 10.99L17.82 10.99L17.82 10.99Q18.12 10.93 18.38 10.81L18.38 10.81L18.38 10.81Q18.66 10.68 18.68 10.60L18.68 10.60L18.68 10.60Q20.96 0.48 20.90 0.65L20.90 0.65L20.90 0.65Q20.99 0.39 20.32 0.51L20.32 0.51L20.32 0.51Q19.55 0.65 19.46 0.91L19.46 0.91ZM22.34 8.98L22.34 8.98Q22.07 9.59 21.71 10.07L21.71 10.07L21.71 10.07Q21.61 10.19 21.48 10.32L21.48 10.32L21.48 10.32Q21.35 10.16 21.28 9.83L21.28 9.83L21.28 9.83Q21.07 8.78 21.63 6.77L21.63 6.77L21.63 6.77Q21.86 5.93 22.17 5.26L22.17 5.26L22.17 5.26Q22.29 5.01 22.41 4.80L22.41 4.80L22.41 4.80Q22.85 5.34 22.89 6.34L22.89 6.34L22.89 6.34Q22.94 7.59 22.34 8.98L22.34 8.98ZM23.34 3.95L23.34 3.95Q23.08 3.80 22.41 4.03L22.41 4.03L22.41 4.03Q22.14 4.12 21.98 4.26L21.98 4.26L21.98 4.26Q21.68 4.33 21.49 4.46L21.49 4.46L21.49 4.46Q21.01 4.80 20.60 5.80L20.60 5.80L20.60 5.80Q20.21 6.75 19.97 7.93L19.97 7.93L19.97 7.93Q19.71 9.18 19.79 9.99L19.79 9.99L19.79 9.99Q19.88 10.92 20.51 11.01L20.51 11.01L20.51 11.01Q21.12 11.08 21.78 10.83L21.78 10.83L21.78 10.83Q22.42 10.60 22.86 10.15L22.86 10.15L22.86 10.15Q23.58 9.43 24.01 8.11L24.01 8.11L24.01 8.11Q24.42 6.90 24.37 5.87L24.37 5.87L24.37 5.87Q24.29 4.47 23.34 3.95L23.34 3.95ZM28.61 4.53L28.61 4.53Q28.30 4.35 27.63 4.50L27.63 4.50L27.63 4.50Q27.14 4.62 26.73 4.94L26.73 4.94L26.73 4.94Q26.73 4.94 26.72 4.94L26.72 4.94L26.72 4.94Q26.72 4.94 26.71 4.95L26.71 4.95L26.71 4.95Q26.77 4.53 26.73 4.16L26.73 4.16L26.73 4.16Q26.71 4.07 26.48 4.05L26.48 4.05L26.48 4.05Q26.26 4.05 25.97 4.12L25.97 4.12L25.97 4.12Q25.24 4.29 25.27 4.55L25.27 4.55L25.27 4.55Q25.32 5.05 24.76 7.33L24.76 7.33L24.76 7.33Q24.66 7.73 24.57 8.28L24.57 8.28L24.57 8.28Q24.21 9.37 24.10 10.66L24.10 10.66L24.10 10.66Q24.09 10.73 24.09 10.73L24.09 10.73L24.09 10.73Q24.08 10.90 24.77 10.77L24.77 10.77L24.77 10.77Q25.48 10.63 25.55 10.40L25.55 10.40L25.55 10.40Q25.69 9.87 26.00 8.07L26.00 8.07L26.00 8.07Q26.52 6.54 27.49 5.39L27.49 5.39L27.49 5.39Q27.53 5.61 27.47 5.93L27.47 5.93L27.47 5.93Q27.38 6.43 27.04 7.06L27.04 7.06L27.04 7.06Q26.77 7.59 26.53 7.79L26.53 7.79L26.53 7.79Q26.37 7.94 26.56 8.00L26.56 8.00L26.56 8.00Q26.70 8.04 26.87 8.03L26.87 8.03L26.87 8.03Q27.52 7.96 27.86 7.68L27.86 7.68L27.86 7.68Q28.17 7.40 28.51 6.75L28.51 6.75L28.51 6.75Q28.85 6.10 28.95 5.46L28.95 5.46L28.95 5.46Q29.05 4.79 28.61 4.53L28.61 4.53ZM29.82 9.28L29.82 9.28Q29.57 8.31 29.93 6.81L29.93 6.81L29.93 6.81Q30.30 5.33 30.99 4.59L30.99 4.59L30.99 4.59Q31.04 4.53 31.12 4.46L31.12 4.46L31.12 4.46Q31.13 4.47 31.15 4.49L31.15 4.49L31.15 4.49Q31.50 4.80 31.59 5.69L31.59 5.69L31.59 5.69Q31.60 5.79 31.83 5.80L31.83 5.80L31.83 5.80Q31.68 6.60 31.44 7.98L31.44 7.98L31.44 7.98Q31.16 9.58 31.05 10.17L31.05 10.17L31.05 10.17Q30.83 10.26 30.72 10.40L30.72 10.40L30.72 10.40Q30.72 10.40 30.69 10.44L30.69 10.44L30.69 10.44Q30.60 10.40 30.52 10.34L30.52 10.34L30.52 10.34Q30.02 10.02 29.82 9.28L29.82 9.28ZM33.83 0.60L33.83 0.60Q33.52 0.66 33.27 0.77L33.27 0.77L33.27 0.77Q33.00 0.90 32.98 1.00L32.98 1.00L32.98 1.00Q32.59 2.28 32.25 3.83L32.25 3.83L32.25 3.83Q31.99 3.74 31.64 3.77L31.64 3.77L31.64 3.77Q30.93 3.85 30.28 4.22L30.28 4.22L30.28 4.22Q29.16 4.86 28.59 6.75L28.59 6.75L28.59 6.75Q28.06 8.51 28.38 9.71L28.38 9.71L28.38 9.71Q28.59 10.55 29.30 10.92L29.30 10.92L29.30 10.92Q30.10 11.33 31.25 10.84L31.25 10.84L31.25 10.84Q31.36 10.83 31.53 10.81L31.53 10.81L31.53 10.81Q31.83 10.75 32.09 10.64L32.09 10.64L32.09 10.64Q32.37 10.50 32.39 10.41L32.39 10.41L32.39 10.41Q33.91 2.39 34.41 0.74L34.41 0.74L34.41 0.74Q34.49 0.49 33.83 0.60L33.83 0.60ZM40.33 5.31L40.33 5.31Q40.17 6.24 39.28 7.18L39.28 7.18L39.28 7.18Q39.09 7.38 38.85 7.58L38.85 7.58L38.85 7.58Q38.79 7.63 38.73 7.68L38.73 7.68L38.73 7.68Q38.51 7.59 38.25 7.58L38.25 7.58L38.25 7.58Q38.81 4.74 38.96 2.66L38.96 2.66L38.96 2.66Q39.22 2.80 39.46 2.99L39.46 2.99L39.46 2.99Q39.98 3.39 40.21 4.03L40.21 4.03L40.21 4.03Q40.43 4.65 40.33 5.31L40.33 5.31ZM37.35 2.40L37.35 2.40Q37.35 2.40 37.37 2.39L37.37 2.39L37.37 2.39Q37.36 2.40 37.35 2.40L37.35 2.40ZM42.29 11.42L42.29 11.42Q41.56 10.88 40.02 8.99L40.02 8.99L40.02 8.99Q39.35 8.17 39.24 8.05L39.24 8.05L39.24 8.05Q39.70 7.84 40.13 7.50L40.13 7.50L40.13 7.50Q41.33 6.56 41.69 5.41L41.69 5.41L41.69 5.41Q41.93 4.60 41.73 3.84L41.73 3.84L41.73 3.84Q41.51 3.07 40.89 2.53L40.89 2.53L40.89 2.53Q39.65 1.46 37.58 1.88L37.58 1.88L37.58 1.88Q37.45 1.91 37.25 1.96L37.25 1.96L37.25 1.96Q36.51 2.14 36.57 2.37L36.57 2.37L36.57 2.37Q36.63 2.58 37.34 2.40L37.34 2.40L37.34 2.40Q37.41 2.39 37.46 2.38L37.46 2.38L37.46 2.38Q37.50 2.37 37.54 2.37L37.54 2.37L37.54 2.37Q37.42 5.11 36.18 10.79L36.18 10.79L36.18 10.79Q36.13 11.04 36.76 10.92L36.76 10.92L36.76 10.92Q37.07 10.87 37.32 10.75L37.32 10.75L37.32 10.75Q37.60 10.62 37.63 10.53L37.63 10.53L37.63 10.53Q37.92 9.17 38.01 8.72L38.01 8.72L38.01 8.72Q38.02 8.72 38.02 8.72L38.02 8.72L38.02 8.72Q38.03 8.72 38.03 8.72L38.03 8.72L38.03 8.72Q38.14 8.85 38.82 9.70L38.82 9.70L38.82 9.70Q40.14 11.34 40.91 11.92L40.91 11.92L40.91 11.92Q41.13 12.09 41.85 11.83L41.85 11.83L41.85 11.83Q42.03 11.76 42.18 11.67L42.18 11.67L42.18 11.67Q42.42 11.52 42.29 11.42L42.29 11.42ZM43.16 7.05L43.16 7.05Q43.24 6.66 43.33 6.31L43.33 6.31L43.33 6.31Q43.53 5.80 43.80 5.24L43.80 5.24L43.80 5.24Q43.93 4.99 44.09 4.76L44.09 4.76L44.09 4.76Q44.15 4.68 44.23 4.59L44.23 4.59L44.23 4.59Q44.21 4.61 44.25 4.57L44.25 4.57L44.25 4.57Q44.28 4.59 44.32 4.61L44.32 4.61L44.32 4.61Q44.59 4.82 44.65 5.46L44.65 5.46L44.65 5.46Q44.73 6.01 44.47 6.95L44.47 6.95L44.47 6.95Q43.68 6.97 43.16 7.05L43.16 7.05ZM42.93 10.48L42.93 10.48Q42.93 10.48 42.93 10.48L42.93 10.48L42.93 10.48Q42.93 10.48 42.91 10.49L42.91 10.49L42.91 10.49Q42.92 10.49 42.93 10.48L42.93 10.48ZM44.43 4.42L44.43 4.42L44.43 4.42Q44.43 4.42 44.43 4.41L44.43 4.41L44.43 4.41Q44.43 4.42 44.43 4.42L44.43 4.42ZM46.12 5.11L46.12 5.11Q46.07 4.50 45.74 4.17L45.74 4.17L45.74 4.17Q45.37 3.80 44.39 3.98L44.39 3.98L44.39 3.98Q43.48 4.14 42.94 4.68L42.94 4.68L42.94 4.68Q42.57 5.04 42.28 5.69L42.28 5.69L42.28 5.69Q41.82 6.49 41.58 8.04L41.58 8.04L41.58 8.04Q41.45 8.93 41.46 9.63L41.46 9.63L41.46 9.63Q41.46 10.77 42.17 10.94L42.17 10.94L42.17 10.94Q42.64 11.06 43.47 10.78L43.47 10.78L43.47 10.78Q43.97 10.62 44.43 10.23L44.43 10.23L44.43 10.23Q45.24 9.57 45.39 8.68L45.39 8.68L45.39 8.68Q45.43 8.44 44.81 8.54L44.81 8.54L44.81 8.54Q44.50 8.60 44.26 8.72L44.26 8.72L44.26 8.72Q43.97 8.85 43.96 8.94L43.96 8.94L43.96 8.94Q43.86 9.50 43.44 10.04L43.44 10.04L43.44 10.04Q43.34 10.15 43.19 10.28L43.19 10.28L43.19 10.28Q43.06 10.17 42.98 9.85L42.98 9.85L42.98 9.85Q42.89 9.51 42.92 8.76L42.92 8.76L42.92 8.76Q42.96 8.08 43.07 7.53L43.07 7.53L43.07 7.53Q43.38 7.50 43.91 7.50L43.91 7.50L43.91 7.50Q44.60 7.51 44.75 7.50L44.75 7.50L44.75 7.50Q44.99 7.49 45.32 7.38L45.32 7.38L45.32 7.38Q45.74 7.22 45.79 7.08L45.79 7.08L45.79 7.08Q46.18 5.92 46.12 5.11L46.12 5.11ZM50.57 4.08L50.57 4.08Q49.83 4.21 49.71 4.48L49.71 4.48L49.71 4.48Q48.73 6.58 48.13 7.88L48.13 7.88L48.13 7.88Q48.08 7.97 48.02 8.11L48.02 8.11L48.02 8.11Q47.95 5.50 48.02 4.27L48.02 4.27L48.02 4.27Q48.02 4.19 47.80 4.18L47.80 4.18L47.80 4.18Q47.58 4.17 47.30 4.22L47.30 4.22L47.30 4.22Q46.57 4.37 46.56 4.66L46.56 4.66L46.56 4.66Q46.49 5.84 46.54 7.75L46.54 7.75L46.54 7.75Q46.61 10.16 46.60 10.83L46.60 10.83L46.60 10.83Q46.59 11.01 47.20 10.90L47.20 10.90L47.20 10.90Q47.81 10.79 47.99 10.58L47.99 10.58L47.99 10.58Q48.55 9.93 49.51 7.76L49.51 7.76L49.51 7.76Q49.83 7.02 51.15 4.21L51.15 4.21L51.15 4.21Q51.22 4.06 50.93 4.05L50.93 4.05L50.93 4.05Q50.75 4.05 50.57 4.08L50.57 4.08ZM51.48 4.42L51.48 4.42Q51.21 5.93 50.76 7.64L50.76 7.64L50.76 7.64Q50.57 8.35 50.31 9.22L50.31 9.22L50.31 9.22Q49.95 10.42 50.01 10.72L50.01 10.72L50.01 10.72Q50.06 10.95 50.78 10.77L50.78 10.77L50.78 10.77Q51.52 10.58 51.47 10.33L51.47 10.33L51.47 10.33Q51.41 10.06 51.74 8.96L51.74 8.96L51.74 8.96Q51.97 8.18 52.19 7.38L52.19 7.38L52.19 7.38Q52.64 5.70 52.92 4.16L52.92 4.16L52.92 4.16Q52.96 3.92 52.34 4.03L52.34 4.03L52.34 4.03Q52.03 4.09 51.78 4.20L51.78 4.20L51.78 4.20Q51.50 4.33 51.48 4.42L51.48 4.42ZM51.31 2.43L51.31 2.43Q51.60 2.63 51.81 2.83L51.81 2.83L51.81 2.83Q51.88 2.90 52.18 2.87L52.18 2.87L52.18 2.87Q52.46 2.84 52.75 2.74L52.75 2.74L52.75 2.74Q53.37 2.52 53.18 2.34L53.18 2.34L53.18 2.34Q52.98 2.13 52.68 1.93L52.68 1.93L52.68 1.93Q52.58 1.87 52.32 1.89L52.32 1.89L52.32 1.89Q52.04 1.92 51.75 2.02L51.75 2.02L51.75 2.02Q51.57 2.08 51.42 2.18L51.42 2.18L51.42 2.18Q51.17 2.34 51.31 2.43L51.31 2.43ZM54.36 7.05L54.36 7.05Q54.44 6.66 54.53 6.31L54.53 6.31L54.53 6.31Q54.73 5.80 55.00 5.24L55.00 5.24L55.00 5.24Q55.13 4.99 55.29 4.76L55.29 4.76L55.29 4.76Q55.34 4.68 55.43 4.59L55.43 4.59L55.43 4.59Q55.41 4.61 55.45 4.57L55.45 4.57L55.45 4.57Q55.47 4.59 55.51 4.61L55.51 4.61L55.51 4.61Q55.79 4.82 55.85 5.46L55.85 5.46L55.85 5.46Q55.92 6.01 55.67 6.95L55.67 6.95L55.67 6.95Q54.88 6.97 54.36 7.05L54.36 7.05ZM54.13 10.48L54.13 10.48Q54.13 10.48 54.13 10.48L54.13 10.48L54.13 10.48Q54.13 10.48 54.11 10.49L54.11 10.49L54.11 10.49Q54.12 10.49 54.13 10.48L54.13 10.48ZM55.62 4.42L55.62 4.42L55.62 4.42Q55.63 4.42 55.63 4.41L55.63 4.41L55.63 4.41Q55.63 4.42 55.62 4.42L55.62 4.42ZM57.31 5.11L57.31 5.11Q57.27 4.50 56.94 4.17L56.94 4.17L56.94 4.17Q56.57 3.80 55.59 3.98L55.59 3.98L55.59 3.98Q54.68 4.14 54.14 4.68L54.14 4.68L54.14 4.68Q53.77 5.04 53.48 5.69L53.48 5.69L53.48 5.69Q53.02 6.49 52.78 8.04L52.78 8.04L52.78 8.04Q52.65 8.93 52.66 9.63L52.66 9.63L52.66 9.63Q52.66 10.77 53.37 10.94L53.37 10.94L53.37 10.94Q53.83 11.06 54.67 10.78L54.67 10.78L54.67 10.78Q55.17 10.62 55.63 10.23L55.63 10.23L55.63 10.23Q56.44 9.57 56.59 8.68L56.59 8.68L56.59 8.68Q56.63 8.44 56.01 8.54L56.01 8.54L56.01 8.54Q55.70 8.60 55.45 8.72L55.45 8.72L55.45 8.72Q55.17 8.85 55.15 8.94L55.15 8.94L55.15 8.94Q55.06 9.50 54.63 10.04L54.63 10.04L54.63 10.04Q54.54 10.15 54.39 10.28L54.39 10.28L54.39 10.28Q54.26 10.17 54.17 9.85L54.17 9.85L54.17 9.85Q54.09 9.51 54.12 8.76L54.12 8.76L54.12 8.76Q54.16 8.08 54.27 7.53L54.27 7.53L54.27 7.53Q54.58 7.50 55.11 7.50L55.11 7.50L55.11 7.50Q55.80 7.51 55.95 7.50L55.95 7.50L55.95 7.50Q56.18 7.49 56.52 7.38L56.52 7.38L56.52 7.38Q56.94 7.22 56.98 7.08L56.98 7.08L56.98 7.08Q57.38 5.92 57.31 5.11L57.31 5.11ZM64.06 3.95L64.06 3.95Q64.02 3.72 63.29 3.90L63.29 3.90L63.29 3.90Q62.55 4.09 62.60 4.34L62.60 4.34L62.60 4.34Q62.88 5.80 62.15 7.92L62.15 7.92L62.15 7.92Q61.88 8.71 61.49 9.39L61.49 9.39L61.49 9.39Q61.54 8.83 61.54 8.73L61.54 8.73L61.54 8.73Q61.56 8.45 61.55 7.10L61.55 7.10L61.55 7.10Q61.54 5.82 61.59 5.30L61.59 5.30L61.59 5.30Q61.86 4.50 62.04 3.73L62.04 3.73L62.04 3.73Q62.10 3.49 61.41 3.63L61.41 3.63L61.41 3.63Q60.72 3.77 60.60 3.99L60.60 3.99L60.60 3.99Q60.25 4.63 60.14 5.58L60.14 5.58L60.14 5.58Q59.81 6.60 59.37 7.61L59.37 7.61L59.37 7.61Q59.12 8.17 58.87 8.67L58.87 8.67L58.87 8.67Q59.04 4.06 59.05 4.15L59.05 4.15L59.05 4.15Q59.04 4.05 58.80 4.04L58.80 4.04L58.80 4.04Q58.58 4.03 58.29 4.10L58.29 4.10L58.29 4.10Q57.56 4.27 57.59 4.55L57.59 4.55L57.59 4.55Q57.71 5.52 57.50 7.75L57.50 7.75L57.50 7.75Q57.31 9.82 57.53 10.96L57.53 10.96L57.53 10.96Q57.57 11.13 58.13 11.03L58.13 11.03L58.13 11.03Q58.78 10.90 58.98 10.63L58.98 10.63L58.98 10.63Q59.56 9.84 60.09 8.85L60.09 8.85L60.09 8.85Q60.09 8.96 60.09 9.04L60.09 9.04L60.09 9.04Q60.02 10.88 60.05 11.06L60.05 11.06L60.05 11.06Q60.08 11.18 60.46 11.15L60.46 11.15L60.46 11.15Q60.97 11.11 61.35 10.88L61.35 10.88L61.35 10.88Q62.73 10.04 63.57 7.72L63.57 7.72L63.57 7.72Q64.37 5.52 64.06 3.95L64.06 3.95Z"></path></g><!----><!----></svg>